<svg width="16" height="16" viewBox="0 0 16 16" fill="none" xmlns="http://www.w3.org/2000/svg">
<path d="M12.8621 9.34475C13.0524 9.145 13.0449 8.82825 12.8449 8.638C12.6449 8.4475 12.3284 8.4555 12.1379 8.65525L8.50013 12.4908V2.5C8.50013 2.224 8.27613 2 8.00013 2C7.72413 2 7.50013 2.224 7.50013 2.5V12.4747L3.86214 8.65525C3.67164 8.45525 3.35513 8.4475 3.15514 8.638C3.05214 8.73625 3.00014 8.868 3.00014 9C3.00014 9.124 3.04589 9.248 3.13813 9.34475L7.29313 13.707C7.48188 13.896 7.73288 14 8.00013 14C8.26738 14 8.51838 13.896 8.71563 13.6982L12.8621 9.34475Z" fill="white"/>
</svg>
