<svg width="13" height="13" viewBox="0 0 13 13" fill="none" xmlns="http://www.w3.org/2000/svg">
<path d="M3.23546 0.739674C2.87351 0.74849 2.58651 1.04942 2.59555 1.4116C2.60437 1.77402 2.90553 2.06033 3.26771 2.05174L10.2035 1.86821L0.931278 11.1404C0.675129 11.3966 0.675129 11.8123 0.931278 12.0685C1.18743 12.3246 1.60321 12.3246 1.85936 12.0685L11.1167 2.81114L10.9482 9.73228C10.9394 10.0947 11.226 10.3956 11.5884 10.4044C11.7752 10.4088 11.9457 10.3348 12.0682 10.2123C12.1833 10.0972 12.2559 9.93971 12.2601 9.7643L12.4524 1.85963C12.4527 1.50905 12.3162 1.17958 12.0682 0.931553C11.8202 0.683524 11.4907 0.547097 11.1241 0.547561L3.23546 0.739674Z" fill="#EDC239"/>
</svg>
